<mxfile host="app.diagrams.net" modified="2022-05-05T09:56:43.202Z" agent="5.0 (Windows NT 10.0; Win64; x64) AppleWebKit/537.36 (KHTML, like Gecko) Chrome/101.0.4951.54 Safari/537.36" etag="WkAuXncaNW1MydH9dmmk" version="17.4.6" type="github">
  <diagram id="CWCnjIURfsmGZbseFLYr" name="Page-1">
    <mxGraphModel dx="2254" dy="1866" grid="1" gridSize="10" guides="1" tooltips="1" connect="1" arrows="1" fold="1" page="1" pageScale="1" pageWidth="850" pageHeight="1100" math="0" shadow="0">
      <root>
        <mxCell id="0" />
        <mxCell id="1" parent="0" />
        <mxCell id="jH8EIa96JGf7REQoZhj5-1" value="Sfesten&lt;br&gt;Project" style="rounded=0;whiteSpace=wrap;html=1;fillColor=#dae8fc;strokeColor=#6c8ebf;" parent="1" vertex="1">
          <mxGeometry x="280" y="40" width="120" height="60" as="geometry" />
        </mxCell>
        <mxCell id="jH8EIa96JGf7REQoZhj5-9" style="edgeStyle=orthogonalEdgeStyle;rounded=0;orthogonalLoop=1;jettySize=auto;html=1;exitX=1;exitY=0.75;exitDx=0;exitDy=0;entryX=0;entryY=0.75;entryDx=0;entryDy=0;" parent="1" source="jH8EIa96JGf7REQoZhj5-3" target="jH8EIa96JGf7REQoZhj5-4" edge="1">
          <mxGeometry relative="1" as="geometry" />
        </mxCell>
        <mxCell id="jH8EIa96JGf7REQoZhj5-12" style="edgeStyle=orthogonalEdgeStyle;rounded=0;orthogonalLoop=1;jettySize=auto;html=1;entryX=0.5;entryY=0;entryDx=0;entryDy=0;" parent="1" source="jH8EIa96JGf7REQoZhj5-3" target="jH8EIa96JGf7REQoZhj5-11" edge="1">
          <mxGeometry relative="1" as="geometry" />
        </mxCell>
        <mxCell id="jH8EIa96JGf7REQoZhj5-3" value="dir&lt;br&gt;data_type" style="rounded=0;whiteSpace=wrap;html=1;" parent="1" vertex="1">
          <mxGeometry x="140" y="140" width="120" height="60" as="geometry" />
        </mxCell>
        <mxCell id="jH8EIa96JGf7REQoZhj5-6" value="" style="edgeStyle=orthogonalEdgeStyle;rounded=0;orthogonalLoop=1;jettySize=auto;html=1;" parent="1" source="jH8EIa96JGf7REQoZhj5-4" target="jH8EIa96JGf7REQoZhj5-3" edge="1">
          <mxGeometry relative="1" as="geometry">
            <Array as="points">
              <mxPoint x="270" y="160" />
              <mxPoint x="270" y="160" />
            </Array>
          </mxGeometry>
        </mxCell>
        <mxCell id="jH8EIa96JGf7REQoZhj5-7" value="" style="edgeStyle=orthogonalEdgeStyle;rounded=0;orthogonalLoop=1;jettySize=auto;html=1;" parent="1" source="jH8EIa96JGf7REQoZhj5-4" target="jH8EIa96JGf7REQoZhj5-5" edge="1">
          <mxGeometry relative="1" as="geometry">
            <Array as="points">
              <mxPoint x="410" y="160" />
              <mxPoint x="410" y="160" />
            </Array>
          </mxGeometry>
        </mxCell>
        <mxCell id="jH8EIa96JGf7REQoZhj5-16" value="" style="edgeStyle=orthogonalEdgeStyle;rounded=0;orthogonalLoop=1;jettySize=auto;html=1;" parent="1" source="jH8EIa96JGf7REQoZhj5-4" target="jH8EIa96JGf7REQoZhj5-15" edge="1">
          <mxGeometry relative="1" as="geometry" />
        </mxCell>
        <mxCell id="jH8EIa96JGf7REQoZhj5-4" value="dir&lt;br&gt;mechanism" style="rounded=0;whiteSpace=wrap;html=1;" parent="1" vertex="1">
          <mxGeometry x="280" y="140" width="120" height="60" as="geometry" />
        </mxCell>
        <mxCell id="jH8EIa96JGf7REQoZhj5-8" style="edgeStyle=orthogonalEdgeStyle;rounded=0;orthogonalLoop=1;jettySize=auto;html=1;exitX=0;exitY=0.75;exitDx=0;exitDy=0;entryX=1;entryY=0.75;entryDx=0;entryDy=0;" parent="1" source="jH8EIa96JGf7REQoZhj5-5" target="jH8EIa96JGf7REQoZhj5-4" edge="1">
          <mxGeometry relative="1" as="geometry" />
        </mxCell>
        <mxCell id="jH8EIa96JGf7REQoZhj5-14" value="" style="edgeStyle=orthogonalEdgeStyle;rounded=0;orthogonalLoop=1;jettySize=auto;html=1;" parent="1" source="jH8EIa96JGf7REQoZhj5-5" target="jH8EIa96JGf7REQoZhj5-13" edge="1">
          <mxGeometry relative="1" as="geometry" />
        </mxCell>
        <mxCell id="mbIorze7_O7tJuvx43zC-6" value="" style="edgeStyle=orthogonalEdgeStyle;rounded=0;orthogonalLoop=1;jettySize=auto;html=1;fontSize=10;" parent="1" source="jH8EIa96JGf7REQoZhj5-5" edge="1">
          <mxGeometry relative="1" as="geometry">
            <mxPoint x="720" y="170" as="targetPoint" />
            <Array as="points">
              <mxPoint x="680" y="170" />
              <mxPoint x="680" y="170" />
            </Array>
          </mxGeometry>
        </mxCell>
        <mxCell id="mbIorze7_O7tJuvx43zC-7" value="go" style="edgeLabel;html=1;align=center;verticalAlign=middle;resizable=0;points=[];fontSize=10;" parent="mbIorze7_O7tJuvx43zC-6" vertex="1" connectable="0">
          <mxGeometry x="0.2476" y="1" relative="1" as="geometry">
            <mxPoint as="offset" />
          </mxGeometry>
        </mxCell>
        <mxCell id="jH8EIa96JGf7REQoZhj5-5" value="dir&lt;br&gt;qr_generator" style="rounded=0;whiteSpace=wrap;html=1;" parent="1" vertex="1">
          <mxGeometry x="420" y="140" width="120" height="60" as="geometry" />
        </mxCell>
        <mxCell id="jH8EIa96JGf7REQoZhj5-17" style="edgeStyle=orthogonalEdgeStyle;rounded=0;orthogonalLoop=1;jettySize=auto;html=1;exitX=0;exitY=0.5;exitDx=0;exitDy=0;" parent="1" source="jH8EIa96JGf7REQoZhj5-11" edge="1">
          <mxGeometry relative="1" as="geometry">
            <mxPoint x="-50" y="235" as="targetPoint" />
          </mxGeometry>
        </mxCell>
        <mxCell id="mbIorze7_O7tJuvx43zC-12" value="" style="edgeStyle=orthogonalEdgeStyle;rounded=0;orthogonalLoop=1;jettySize=auto;html=1;fontSize=10;" parent="1" source="jH8EIa96JGf7REQoZhj5-11" target="mbIorze7_O7tJuvx43zC-11" edge="1">
          <mxGeometry relative="1" as="geometry" />
        </mxCell>
        <mxCell id="jH8EIa96JGf7REQoZhj5-11" value="Holds The classes&lt;br&gt;&amp;nbsp;&amp;amp; data types" style="rounded=0;whiteSpace=wrap;html=1;" parent="1" vertex="1">
          <mxGeometry x="140" y="220" width="120" height="30" as="geometry" />
        </mxCell>
        <mxCell id="jH8EIa96JGf7REQoZhj5-13" value="Generate the qr code" style="rounded=0;whiteSpace=wrap;html=1;" parent="1" vertex="1">
          <mxGeometry x="420" y="220" width="120" height="30" as="geometry" />
        </mxCell>
        <mxCell id="mbIorze7_O7tJuvx43zC-4" value="" style="edgeStyle=orthogonalEdgeStyle;rounded=0;orthogonalLoop=1;jettySize=auto;html=1;" parent="1" source="jH8EIa96JGf7REQoZhj5-15" target="mbIorze7_O7tJuvx43zC-3" edge="1">
          <mxGeometry relative="1" as="geometry" />
        </mxCell>
        <mxCell id="jH8EIa96JGf7REQoZhj5-15" value="Input/Output&lt;br&gt;Builds the mechanism" style="rounded=0;whiteSpace=wrap;html=1;" parent="1" vertex="1">
          <mxGeometry x="280" y="220" width="120" height="40" as="geometry" />
        </mxCell>
        <mxCell id="mbIorze7_O7tJuvx43zC-3" value="&lt;span style=&quot;font-size: 10px&quot;&gt;&amp;nbsp;This mechanism directory will hold the Python modules that will connect the data_type modules and the qr_generator modules&lt;/span&gt;" style="whiteSpace=wrap;html=1;rounded=0;" parent="1" vertex="1">
          <mxGeometry x="280" y="280" width="120" height="90" as="geometry" />
        </mxCell>
        <mxCell id="mbIorze7_O7tJuvx43zC-10" style="edgeStyle=orthogonalEdgeStyle;rounded=0;orthogonalLoop=1;jettySize=auto;html=1;exitX=0.5;exitY=0;exitDx=0;exitDy=0;entryX=1;entryY=0.5;entryDx=0;entryDy=0;fontSize=10;" parent="1" source="mbIorze7_O7tJuvx43zC-8" target="mbIorze7_O7tJuvx43zC-9" edge="1">
          <mxGeometry relative="1" as="geometry" />
        </mxCell>
        <mxCell id="mbIorze7_O7tJuvx43zC-19" value="Each QR code will have a primary key &lt;br&gt;which will be the search key in the server" style="edgeLabel;html=1;align=center;verticalAlign=middle;resizable=0;points=[];fontSize=10;" parent="mbIorze7_O7tJuvx43zC-10" vertex="1" connectable="0">
          <mxGeometry x="-0.3758" relative="1" as="geometry">
            <mxPoint as="offset" />
          </mxGeometry>
        </mxCell>
        <mxCell id="mbIorze7_O7tJuvx43zC-8" value="&lt;span style=&quot;color: rgb(0 , 0 , 0) ; font-family: &amp;#34;helvetica&amp;#34; ; font-size: 10px ; font-style: normal ; font-weight: 400 ; letter-spacing: normal ; text-align: center ; text-indent: 0px ; text-transform: none ; word-spacing: 0px ; background-color: rgb(248 , 249 , 250) ; display: inline ; float: none&quot;&gt;Database&lt;/span&gt;&lt;br style=&quot;color: rgb(0 , 0 , 0) ; font-family: &amp;#34;helvetica&amp;#34; ; font-size: 10px ; font-style: normal ; font-weight: 400 ; letter-spacing: normal ; text-align: center ; text-indent: 0px ; text-transform: none ; word-spacing: 0px ; background-color: rgb(248 , 249 , 250)&quot;&gt;&lt;span style=&quot;color: rgb(0 , 0 , 0) ; font-family: &amp;#34;helvetica&amp;#34; ; font-size: 10px ; font-style: normal ; font-weight: 400 ; letter-spacing: normal ; text-align: center ; text-indent: 0px ; text-transform: none ; word-spacing: 0px ; background-color: rgb(248 , 249 , 250) ; display: inline ; float: none&quot;&gt;after generating QR image it will be saved in a database along with all its&lt;br&gt;&lt;/span&gt;" style="rounded=0;whiteSpace=wrap;html=1;fontSize=10;" parent="1" vertex="1">
          <mxGeometry x="720" y="130" width="120" height="60" as="geometry" />
        </mxCell>
        <mxCell id="mbIorze7_O7tJuvx43zC-9" value="Server-side&lt;br&gt;Later it will be connected to a server where you can see how many people has scanned this code and from which country" style="rounded=0;whiteSpace=wrap;html=1;fontSize=10;" parent="1" vertex="1">
          <mxGeometry x="570" y="-70" width="120" height="80" as="geometry" />
        </mxCell>
        <mxCell id="mbIorze7_O7tJuvx43zC-11" value="Data:&lt;br&gt;1- vcards.&lt;br&gt;2- web link.&lt;br&gt;3- code encryption.&lt;br&gt;4- Images.&lt;br&gt;5- exe program in qr code&lt;br&gt;6- gif&lt;br&gt;7- geo location&lt;br&gt;8- mp3&lt;br&gt;9- pdf&lt;br&gt;" style="rounded=0;whiteSpace=wrap;html=1;fontSize=10;" parent="1" vertex="1">
          <mxGeometry x="140" y="280" width="120" height="120" as="geometry" />
        </mxCell>
        <mxCell id="mbIorze7_O7tJuvx43zC-16" value="" style="edgeStyle=orthogonalEdgeStyle;rounded=0;orthogonalLoop=1;jettySize=auto;html=1;fontSize=10;" parent="1" source="mbIorze7_O7tJuvx43zC-13" target="mbIorze7_O7tJuvx43zC-15" edge="1">
          <mxGeometry relative="1" as="geometry" />
        </mxCell>
        <mxCell id="mbIorze7_O7tJuvx43zC-13" value="" style="shape=curlyBracket;whiteSpace=wrap;html=1;rounded=1;fontSize=10;" parent="1" vertex="1">
          <mxGeometry x="110" y="280" width="20" height="120" as="geometry" />
        </mxCell>
        <mxCell id="mbIorze7_O7tJuvx43zC-18" value="" style="edgeStyle=orthogonalEdgeStyle;rounded=0;orthogonalLoop=1;jettySize=auto;html=1;fontSize=10;" parent="1" source="mbIorze7_O7tJuvx43zC-15" target="mbIorze7_O7tJuvx43zC-17" edge="1">
          <mxGeometry relative="1" as="geometry" />
        </mxCell>
        <mxCell id="mbIorze7_O7tJuvx43zC-15" value="each data_type will be a directory that contain a class/es that defines what are the requriements for the specific data type" style="whiteSpace=wrap;html=1;fontSize=10;rounded=1;" parent="1" vertex="1">
          <mxGeometry x="-20" y="310" width="120" height="70" as="geometry" />
        </mxCell>
        <mxCell id="mbIorze7_O7tJuvx43zC-17" value="These data types will be accessed only by the mechanism modules to verify what are the requirements&amp;nbsp;" style="whiteSpace=wrap;html=1;fontSize=10;rounded=1;" parent="1" vertex="1">
          <mxGeometry x="-20" y="410" width="120" height="60" as="geometry" />
        </mxCell>
      </root>
    </mxGraphModel>
  </diagram>
</mxfile>
